<?xml version="1.0" ?><!-- Uploaded to: SVG Repo, www.svgrepo.com, Generator: SVG Repo Mixer Tools -->
<svg width="800px" height="800px" viewBox="0 0 64 64" data-name="Layer 1" id="Layer_1" xmlns="http://www.w3.org/2000/svg"><defs><style>
      .cls-1 {
        fill: #f76c5e;
      }

      .cls-2 {
        fill: #e7ecef;
      }

      .cls-3 {
        fill: #8b8c89;
      }

      .cls-4 {
        fill: #bc6c25;
      }

      .cls-5 {
        fill: #a3cef1;
      }

      .cls-6 {
        fill: #dda15e;
      }

      .cls-7 {
        fill: #6096ba;
      }

      .cls-8 {
        fill: #274c77;
      }
    </style></defs><circle class="cls-5" cx="47" cy="17" r="13"/><path class="cls-6" d="M26.58,38.04l-3,1.29c-1.01,.43-2.15,.43-3.15,0l-3-1.29c-1.47-.63-2.42-2.08-2.42-3.68v-5.36c0-3.31,2.69-6,6-6h2c3.31,0,6,2.69,6,6v5.36c0,1.6-.95,3.05-2.42,3.68Z"/><path class="cls-8" d="M35.14,44c-1.82-1.85-4.35-3-7.14-3h-3c0,1.66-1.34,3-3,3s-3-1.34-3-3h-3c-5.52,0-10,4.48-10,10v7H28l4-14h3.14Z"/><path class="cls-6" d="M17,54h2c1.1,0,2,.9,2,2v2h-4v-4h0Z"/><path class="cls-8" d="M12,30.73c-.29,.17-.64,.27-1,.27-1.1,0-2-.9-2-2s.9-2,2-2c.42,0,.81,.13,1.14,.36"/><path class="cls-8" d="M32,30.73c.29,.17,.64,.27,1,.27,1.1,0,2-.9,2-2s-.9-2-2-2c-.42,0-.81,.13-1.14,.36"/><path class="cls-4" d="M19,38.71l1.42,.61c1.01,.44,2.15,.44,3.16,0l1.42-.61v2.29c0,1.66-1.34,3-3,3s-3-1.34-3-3v-2.29Z"/><polyline class="cls-3" points="28 58 32 44 54 44 50 58"/><path class="cls-8" d="M28.4,26.38h-.01c-.57-.23-1.23-.38-2.06-.38-4.33,0-4.33,4-8.67,4-1.13,0-1.97-.27-2.66-.67v-.33c0-3.31,2.69-6,6-6h2c2.37,0,4.42,1.38,5.39,3.38h.01Z"/><path class="cls-2" d="M29,33.6v-4.6c0-3.31-2.69-6-6-6h-2c-3.31,0-6,2.69-6,6v4h-2c-.55,0-1-.45-1-1v-3c0-5.52,4.48-10,10-10,2.76,0,5.26,1.12,7.07,2.93s2.93,4.31,2.93,7.07v3.18c0,.48-.34,.89-.8,.98l-2.2,.44Z"/><path class="cls-5" d="M41,50c.55,0,1,.45,1,1s-.45,1-1,1v-2Z"/><path class="cls-7" d="M22,35h0c-.11-.54,.24-1.07,.78-1.18l8.22-1.64v-2.86c0-4.79-3.61-8.98-8.38-9.3-5.24-.35-9.62,3.81-9.62,8.98v3h2v2h-2c-1.1,0-2-.9-2-2v-2.68c0-5.72,4.24-10.74,9.94-11.27,6.54-.62,12.06,4.53,12.06,10.95v3.18c0,.95-.67,1.77-1.61,1.96l-8.22,1.64c-.54,.11-1.07-.24-1.18-.78Z"/><path class="cls-7" d="M22,58h-2v-2c0-.55-.45-1-1-1h-7c-.55,0-1-.45-1-1v-4c0-.27,.11-.52,.29-.71l1.29-1.29c.39-.39,1.02-.39,1.41,0h0c.39,.39,.39,1.02,0,1.41l-1,1v2.59h6c1.66,0,3,1.34,3,3v2Z"/><rect class="cls-5" height="2" width="50" x="4" y="58"/><polygon class="cls-8" points="54 21 54 12 52 12 52 21 50 21 50 16 48 16 48 21 46 21 46 14 44 14 44 21 42 21 42 18 40 18 40 21 38 21 38 23 56 23 56 21 54 21"/><path class="cls-1" d="M40.6,14.8l-1.2-1.6,4-3c.3-.23,.71-.26,1.05-.09l3.43,1.71,4.5-3.6,1.25,1.56-5,4c-.31,.24-.72,.29-1.07,.11l-3.45-1.72-3.51,2.63Z"/><path class="cls-7" d="M44.29,29.72c-.19,.39-.29,.82-.29,1.28,0,1.66,1.34,3,3,3s3-1.34,3-3c0-.46-.1-.89-.29-1.28-.87,.18-1.78,.28-2.71,.28s-1.84-.1-2.71-.28Z"/><circle class="cls-7" cx="44" cy="37" r="2"/><circle class="cls-7" cx="40" cy="41" r="2"/></svg>